<svg width="33" height="32" viewBox="0 0 33 32" fill="none" xmlns="http://www.w3.org/2000/svg">
<path d="M29.5 5C30.5544 5 31.4182 5.81588 31.4945 6.85074L31.5 7V25C31.5 26.0544 30.6841 26.9182 29.6493 26.9945L29.5 27H3.5C2.44564 27 1.58183 26.1841 1.50549 25.1493L1.5 25V7C1.5 5.94564 2.31588 5.08183 3.35074 5.00549L3.5 5H29.5ZM29.5 7H3.5V25H29.5V7ZM26.5 19V21H18.5V19H26.5ZM10.5 11C12.1569 11 13.5 12.3431 13.5 14C13.5 14.6168 13.3139 15.1901 12.9947 15.6668C14.4919 16.5293 15.5 18.1469 15.5 20H13.5C13.5 18.6941 12.6656 17.5831 11.5009 17.171L11.5 14C11.5 13.4477 11.0523 13 10.5 13C9.98716 13 9.56449 13.386 9.50673 13.8834L9.5 14L9.50009 17.1707C8.33485 17.5825 7.5 18.6937 7.5 20H5.5C5.5 18.1469 6.50806 16.5293 8.00571 15.6656C7.68613 15.1901 7.5 14.6168 7.5 14C7.5 12.3431 8.84315 11 10.5 11ZM26.5 15V17H18.5V15H26.5ZM26.5 11V13H18.5V11H26.5Z" fill="#222222"/>
</svg>
