<svg width="33" height="32" viewBox="0 0 33 32" fill="none" xmlns="http://www.w3.org/2000/svg">
<path d="M16.5 0.798096L17.055 1.1681C20.898 3.7301 24.708 5.0001 28.5 5.0001H29.5V17.5001C29.5 25.5741 23.71 31.0001 16.5 31.0001C9.29 31.0001 3.5 25.5741 3.5 17.5001V5.0001H4.5C8.292 5.0001 12.102 3.7301 15.945 1.1681L16.5 0.798096ZM15.5 3.8031C12.3 5.6691 9.082 6.7231 5.852 6.9521L5.5 6.9721V17.5001C5.5 24.0581 9.847 28.4911 15.5 28.9591V3.8031ZM17.5 3.8031V28.9601C23.154 28.4921 27.5 24.0591 27.5 17.5011V6.9721L27.148 6.9521C23.918 6.7221 20.7 5.6701 17.501 3.8041L17.5 3.8031Z" fill="#222222"/>
</svg>
