<svg width="33" height="32" viewBox="0 0 33 32" fill="none" xmlns="http://www.w3.org/2000/svg">
<path d="M25.5 4C26.0046 3.99984 26.4906 4.19041 26.8605 4.5335C27.2305 4.87659 27.4572 5.34684 27.495 5.85L27.5 6V8H29.54C30.582 8 31.42 8.824 31.495 9.852L31.5 10V26C31.5 27.046 30.709 27.917 29.687 27.994L29.54 28H7.46C6.418 28 5.58 27.176 5.505 26.148L5.5 26V24H3.5C2.99542 24.0002 2.50943 23.8096 2.13945 23.4665C1.76947 23.1234 1.54284 22.6532 1.505 22.15L1.5 22V6C1.49984 5.49542 1.69041 5.00943 2.0335 4.63945C2.37659 4.26947 2.84684 4.04284 3.35 4.005L3.5 4H25.5ZM27.5 22C27.5002 22.5046 27.3096 22.9906 26.9665 23.3605C26.6234 23.7305 26.1532 23.9572 25.65 23.995L25.5 24H7.5V26H29.5V10H27.5V22ZM25.5 6H3.5V22H25.5V6ZM22.5 18C22.7652 18 23.0196 18.1054 23.2071 18.2929C23.3946 18.4804 23.5 18.7348 23.5 19C23.5 19.2652 23.3946 19.5196 23.2071 19.7071C23.0196 19.8946 22.7652 20 22.5 20C22.2348 20 21.9804 19.8946 21.7929 19.7071C21.6054 19.5196 21.5 19.2652 21.5 19C21.5 18.7348 21.6054 18.4804 21.7929 18.2929C21.9804 18.1054 22.2348 18 22.5 18ZM14.5 10C15.5609 10 16.5783 10.4214 17.3284 11.1716C18.0786 11.9217 18.5 12.9391 18.5 14C18.5 15.0609 18.0786 16.0783 17.3284 16.8284C16.5783 17.5786 15.5609 18 14.5 18C13.4391 18 12.4217 17.5786 11.6716 16.8284C10.9214 16.0783 10.5 15.0609 10.5 14C10.5 12.9391 10.9214 11.9217 11.6716 11.1716C12.4217 10.4214 13.4391 10 14.5 10ZM14.5 12C13.9696 12 13.4609 12.2107 13.0858 12.5858C12.7107 12.9609 12.5 13.4696 12.5 14C12.5 14.5304 12.7107 15.0391 13.0858 15.4142C13.4609 15.7893 13.9696 16 14.5 16C15.0304 16 15.5391 15.7893 15.9142 15.4142C16.2893 15.0391 16.5 14.5304 16.5 14C16.5 13.4696 16.2893 12.9609 15.9142 12.5858C15.5391 12.2107 15.0304 12 14.5 12ZM6.5 8C6.76522 8 7.01957 8.10536 7.20711 8.29289C7.39464 8.48043 7.5 8.73478 7.5 9C7.5 9.26522 7.39464 9.51957 7.20711 9.70711C7.01957 9.89464 6.76522 10 6.5 10C6.23478 10 5.98043 9.89464 5.79289 9.70711C5.60536 9.51957 5.5 9.26522 5.5 9C5.5 8.73478 5.60536 8.48043 5.79289 8.29289C5.98043 8.10536 6.23478 8 6.5 8Z" fill="#222222"/>
</svg>
