<svg width="33" height="32" viewBox="0 0 33 32" fill="none" xmlns="http://www.w3.org/2000/svg">
<path d="M28.9141 10L20.5 1.58594C20.1242 1.21199 19.6161 1.00142 19.0859 1H8.5C7.1744 1.00156 5.90353 1.52884 4.96619 2.46618C4.02884 3.40353 3.50156 4.6744 3.5 6V26C3.50156 27.3256 4.02884 28.5965 4.96619 29.5338C5.90353 30.4712 7.1744 30.9984 8.5 31H24.5C25.8256 30.9984 27.0965 30.4712 28.0338 29.5338C28.9712 28.5965 29.4984 27.3256 29.5 26V11.4141C29.5007 11.1513 29.4493 10.8911 29.3487 10.6483C29.2481 10.4056 29.1004 10.1852 28.9141 10ZM19.5 3.41406L27.0859 11H22.5C21.7046 10.9991 20.9421 10.6828 20.3796 10.1204C19.8172 9.55794 19.5009 8.79538 19.5 8V3.41406ZM27.5 26C27.4991 26.7954 27.1828 27.5579 26.6204 28.1204C26.0579 28.6828 25.2954 28.9991 24.5 29H8.5C7.70462 28.9991 6.94206 28.6828 6.37964 28.1204C5.81722 27.5579 5.50087 26.7954 5.5 26V6C5.50087 5.20462 5.81722 4.44206 6.37964 3.87964C6.94206 3.31722 7.70462 3.00087 8.5 3H17.5V8C17.5016 9.3256 18.0288 10.5965 18.9662 11.5338C19.9035 12.4712 21.1744 12.9984 22.5 13H27.5V26Z" fill="#222222"/>
</svg>
