<svg width="33" height="32" viewBox="0 0 33 32" fill="none" xmlns="http://www.w3.org/2000/svg">
<path d="M31.3281 3.72648C31.1121 3.24212 30.7127 2.86323 30.2177 2.67293C29.7227 2.48262 29.1723 2.49644 28.6875 2.71135L12.2877 9.99992H7.49999C5.93116 9.99989 4.42472 10.6143 3.30346 11.7116C2.1822 12.8089 1.53531 14.3017 1.5014 15.8701C1.4675 17.4386 2.04927 18.9579 3.12207 20.1026C4.19487 21.2473 5.67334 21.9263 7.24071 21.9941L11.5 21.998V28.9999H13.5V22.5382L28.6885 29.289C28.993 29.4241 29.3264 29.481 29.6585 29.4545C29.9906 29.4281 30.3108 29.3191 30.5901 29.1375C30.8694 28.9559 31.0989 28.7074 31.2578 28.4146C31.4167 28.1218 31.4999 27.794 31.5 27.4609V4.53849C31.4995 4.25884 31.441 3.98233 31.3281 3.72648ZM7.3164 19.996C6.27255 19.948 5.28894 19.4934 4.57596 18.7294C3.86297 17.9655 3.47721 16.9529 3.5012 15.9083C3.52519 14.8636 3.95701 13.8698 4.7043 13.1394C5.4516 12.409 6.45503 12 7.49999 11.9999H11.5V19.9999H7.52245L7.3164 19.996ZM29.5 27.4609L13.5 20.3505V11.6498L29.5 4.53849V27.4609Z" fill="#222222"/>
</svg>
