<svg width="33" height="32" viewBox="0 0 33 32" fill="none" xmlns="http://www.w3.org/2000/svg">
<path d="M16.5005 27C13.3469 26.9903 10.2705 26.0236 7.6782 24.2276C5.08593 22.4316 3.09994 19.891 1.98291 16.9418L1.87305 16.648L2.00586 16.1274C2.85936 12.9365 4.74197 10.1163 7.36169 8.10441C9.98141 6.0925 13.1918 5.00128 16.495 5C19.7981 4.99872 23.0093 6.08746 25.6306 8.09734C28.2519 10.1072 30.1367 12.9259 30.9927 16.1162L31.1274 16.6489L31.0181 16.9419C29.9008 19.8909 27.9147 22.4314 25.3225 24.2273C22.7303 26.0232 19.654 26.9901 16.5005 27ZM3.96875 16.5302C4.97391 19.0315 6.70456 21.1747 8.93799 22.6841C11.1714 24.1935 13.8054 25.0001 16.5011 25C19.1967 24.9999 21.8307 24.1931 24.064 22.6835C26.2973 21.1739 28.0278 19.0305 29.0327 16.5292C28.2728 13.7892 26.6358 11.3737 24.3724 9.65265C22.109 7.93158 19.3438 6.99976 16.5004 6.99988C13.6569 6.99999 10.8918 7.93202 8.62855 9.65328C6.36524 11.3745 4.72844 13.7901 3.96875 16.5302ZM16.5005 21C15.5116 21 14.5449 20.7067 13.7226 20.1573C12.9004 19.6079 12.2595 18.827 11.8811 17.9134C11.5027 16.9997 11.4036 15.9944 11.5966 15.0245C11.7895 14.0546 12.2657 13.1637 12.965 12.4644C13.6642 11.7652 14.5551 11.2889 15.525 11.096C16.4949 10.9031 17.5003 11.0021 18.4139 11.3806C19.3275 11.759 20.1084 12.3999 20.6578 13.2221C21.2072 14.0443 21.5005 15.011 21.5005 16C21.4989 17.3256 20.9716 18.5964 20.0343 19.5338C19.097 20.4711 17.8261 20.9984 16.5005 21ZM16.5005 12.9999C15.9071 12.9999 15.3271 13.1759 14.8338 13.5055C14.3404 13.8352 13.9559 14.3037 13.7288 14.8519C13.5018 15.4001 13.4424 16.0033 13.5581 16.5852C13.6739 17.1672 13.9596 17.7017 14.3792 18.1213C14.7987 18.5408 15.3333 18.8266 15.9152 18.9423C16.4972 19.0581 17.1004 18.9987 17.6485 18.7716C18.1967 18.5445 18.6653 18.16 18.9949 17.6667C19.3245 17.1733 19.5005 16.5933 19.5005 16C19.4996 15.2046 19.1833 14.442 18.6208 13.8796C18.0584 13.3172 17.2959 13.0008 16.5005 12.9999Z" fill="#222222"/>
</svg>
