<svg width="33" height="32" viewBox="0 0 33 32" fill="none" xmlns="http://www.w3.org/2000/svg">
<path d="M28.5 2C29.5544 2 30.4182 2.81588 30.4945 3.85074L30.5 4V28C30.5 29.0544 29.6841 29.9182 28.6493 29.9945L28.5 30H4.5C3.44564 30 2.58183 29.1841 2.50549 28.1493L2.5 28V4C2.5 2.94564 3.31588 2.08183 4.35074 2.00549L4.5 2H28.5ZM14.085 17H4.5V28H15.5V18.414L11.2071 22.7071L9.79289 21.2929L14.085 17ZM28.5 17H18.915L23.2071 21.2929L21.7929 22.7071L17.5 18.414V28H28.5V17ZM15.5 4H4.5V15L8.03577 15.0011C7.69503 14.4125 7.5 13.729 7.5 13C7.5 10.7909 9.29086 9 11.5 9C12.5347 9 13.4884 9.35717 14.316 10.1593C14.61 10.4443 14.9977 11.0142 15.4999 11.8959L15.5 4ZM21.5 11C20.9672 11 20.5159 11.169 20.076 11.5954C19.87 11.7951 19.4513 12.4721 18.8554 13.5805L18.6077 14.0468L18.115 15H21.5C22.5016 15 23.3313 14.2637 23.4772 13.3028L23.4945 13.1493L23.5 13C23.5 11.8954 22.6046 11 21.5 11ZM28.5 4H17.5L17.5007 11.8949C18.0026 11.0138 18.3901 10.4442 18.684 10.1593C19.5116 9.35717 20.4653 9 21.5 9C23.7091 9 25.5 10.7909 25.5 13C25.5 13.729 25.305 14.4125 24.9642 15.0011L28.5 15V4ZM11.5 11C10.3954 11 9.5 11.8954 9.5 13L9.50549 13.1493C9.58183 14.1841 10.4456 15 11.5 15H14.885L14.3923 14.0468L14.0278 13.3646C13.4938 12.3839 13.1163 11.7818 12.924 11.5954C12.4841 11.169 12.0328 11 11.5 11Z" fill="#222222"/>
</svg>
