<svg width="33" height="34" viewBox="0 0 33 34" fill="none" xmlns="http://www.w3.org/2000/svg">
<g clip-path="url(#clip0_47_3511)">
<path d="M8.78393 13.3135H9.05761C10.1113 13.3135 10.9734 14.1755 10.9734 15.2292V24.808C10.9734 25.8617 10.1113 26.7238 9.05761 26.7238H8.78393C7.73026 26.7238 6.86816 25.8617 6.86816 24.808V15.2292C6.86816 14.1755 7.73026 13.3135 8.78393 13.3135ZM16.447 7.56616C17.5007 7.56616 18.3627 8.42826 18.3627 9.48193V24.808C18.3627 25.8617 17.5007 26.7238 16.447 26.7238C15.3933 26.7238 14.5312 25.8617 14.5312 24.808V9.48193C14.5312 8.42826 15.3933 7.56616 16.447 7.56616ZM24.11 18.5134C25.1637 18.5134 26.0258 19.3755 26.0258 20.4291V24.808C26.0258 25.8617 25.1637 26.7238 24.11 26.7238C23.0564 26.7238 22.1943 25.8617 22.1943 24.808V20.4291C22.1943 19.3755 23.0564 18.5134 24.11 18.5134Z" fill="#4318FF"/>
</g>
<defs>
<clipPath id="clip0_47_3511">
<rect width="32.8417" height="32.8417" fill="white" transform="translate(0.0263672 0.724121)"/>
</clipPath>
</defs>
</svg>
