<svg width="33" height="34" viewBox="0 0 33 34" fill="none" xmlns="http://www.w3.org/2000/svg">
<g clip-path="url(#clip0_47_3523)">
<path d="M16.1471 15.6397C13.0408 14.8324 12.0419 13.9976 12.0419 12.6977C12.0419 11.2061 13.4239 10.1661 15.7365 10.1661C17.6797 10.1661 18.6512 10.9051 19.007 12.0819C19.1712 12.6292 19.6228 13.0398 20.1975 13.0398H20.6081C21.5112 13.0398 22.1544 12.1503 21.8396 11.3019C21.2649 9.68718 19.9239 8.34614 17.7891 7.82615V6.88195C17.7891 5.74618 16.8723 4.82935 15.7365 4.82935C14.6008 4.82935 13.6839 5.74618 13.6839 6.88195V7.7851C11.0292 8.35982 8.89453 10.084 8.89453 12.725C8.89453 15.886 11.5082 17.4597 15.326 18.3765C18.747 19.1976 19.4312 20.4018 19.4312 21.6744C19.4312 22.6186 18.7607 24.1238 15.7365 24.1238C13.4787 24.1238 12.3155 23.3165 11.864 22.167C11.6587 21.6333 11.1934 21.2502 10.6324 21.2502H10.2492C9.33242 21.2502 8.68927 22.1807 9.03137 23.0291C9.81136 24.9312 11.6313 26.0533 13.6839 26.4912V27.408C13.6839 28.5438 14.6008 29.4606 15.7365 29.4606C16.8723 29.4606 17.7891 28.5438 17.7891 27.408V26.5185C20.4575 26.0122 22.5786 24.4659 22.5786 21.6607C22.5786 17.7744 19.2533 16.4471 16.1471 15.6397Z" fill="#4318FF"/>
</g>
<defs>
<clipPath id="clip0_47_3523">
<rect width="32.8417" height="32.8417" fill="white" transform="translate(0 0.724121)"/>
</clipPath>
</defs>
</svg>
