<svg width="48" height="48" viewBox="0 0 48 48" fill="none" xmlns="http://www.w3.org/2000/svg">
<rect width="48" height="48" rx="15" fill="#FEEFEE"/>
<path d="M24 16.9768V20.5843" stroke="#444750" stroke-width="1.25" stroke-miterlimit="10" stroke-linecap="round"/>
<path d="M24.0213 12.1667C20.0346 12.1667 16.8063 15.3951 16.8063 19.3817V21.6567C16.8063 22.3934 16.503 23.4984 16.1238 24.1267L14.748 26.4234C13.903 27.8426 14.488 29.4242 16.048 29.9442C21.2263 31.6667 26.8271 31.6667 32.0055 29.9442C33.468 29.4567 34.0963 27.7451 33.3055 26.4234L31.9296 24.1267C31.5505 23.4984 31.2471 22.3826 31.2471 21.6567V19.3817C31.2363 15.4167 27.9863 12.1667 24.0213 12.1667Z" fill="#F57500" stroke="#F57500" stroke-width="1.25" stroke-miterlimit="10" stroke-linecap="round"/>
<path d="M27.6076 30.3884C27.6076 32.3709 25.9826 33.9959 24.0001 33.9959C23.0142 33.9959 22.1042 33.5843 21.4542 32.9343C20.8042 32.2843 20.3926 31.3743 20.3926 30.3884" stroke="#F57500" stroke-width="1.25" stroke-miterlimit="10"/>
</svg>
