<svg width="25" height="24" viewBox="0 0 25 24" fill="none" xmlns="http://www.w3.org/2000/svg">
<g clip-path="url(#clip0_225_1963)">
<path d="M12.5 2C6.97 2 2.5 6.47 2.5 12C2.5 17.53 6.97 22 12.5 22C18.03 22 22.5 17.53 22.5 12C22.5 6.47 18.03 2 12.5 2ZM16.8 16.3C16.41 16.69 15.78 16.69 15.39 16.3L12.5 13.41L9.61 16.3C9.22 16.69 8.59 16.69 8.2 16.3C7.81 15.91 7.81 15.28 8.2 14.89L11.09 12L8.2 9.11C7.81 8.72 7.81 8.09 8.2 7.7C8.59 7.31 9.22 7.31 9.61 7.7L12.5 10.59L15.39 7.7C15.78 7.31 16.41 7.31 16.8 7.7C17.19 8.09 17.19 8.72 16.8 9.11L13.91 12L16.8 14.89C17.18 15.27 17.18 15.91 16.8 16.3Z" fill="#EE5D50"/>
</g>
<defs>
<clipPath id="clip0_225_1963">
<rect width="24" height="24" fill="white" transform="translate(0.5)"/>
</clipPath>
</defs>
</svg>
