<svg width="20" height="21" viewBox="0 0 20 21" fill="none" xmlns="http://www.w3.org/2000/svg">
<g clip-path="url(#clip0_234_5736)">
<path d="M10 20.5C15.5228 20.5 20 16.0228 20 10.5C20 4.97715 15.5228 0.5 10 0.5C4.47715 0.5 0 4.97715 0 10.5C0 16.0228 4.47715 20.5 10 20.5Z" fill="white" fill-opacity="0.5"/>
<path fill-rule="evenodd" clip-rule="evenodd" d="M12.9326 9.78577L13.6739 9.04449C14.3183 8.40016 14.3183 7.35549 13.6739 6.71115C13.0296 6.06682 11.9849 6.06682 11.3406 6.71115L10.5851 7.46667C11.1307 8.44196 11.9435 9.24838 12.9326 9.78577ZM9.13 8.92175L5.7803 12.2714C5.35524 12.6965 5.14271 12.909 5.00298 13.1701C4.86325 13.4312 4.8043 13.726 4.68641 14.3154L4.48768 15.3091C4.42116 15.6417 4.3879 15.808 4.4825 15.9026C4.57711 15.9972 4.74342 15.9639 5.07603 15.8974L6.06967 15.6987C6.65913 15.5808 6.95385 15.5218 7.21495 15.3821C7.47605 15.2424 7.68858 15.0298 8.11364 14.6048L11.4737 11.2447C10.5363 10.6417 9.73831 9.84897 9.13 8.92175Z" fill="white"/>
</g>
<defs>
<clipPath id="clip0_234_5736">
<rect width="20" height="20" fill="white" transform="translate(0 0.5)"/>
</clipPath>
</defs>
</svg>
