<svg width="29" height="30" viewBox="0 0 29 30" fill="none" xmlns="http://www.w3.org/2000/svg">
<g clip-path="url(#clip0_47_3457)">
<circle cx="14.0793" cy="15.0002" r="11.4206" fill="#2E90FA"/>
<path fill-rule="evenodd" clip-rule="evenodd" d="M19.4333 3.3445C19.9908 3.90201 19.9908 4.8059 19.4333 5.3634L8.66476 16.1319C8.10725 16.6894 7.20336 16.6894 6.64586 16.1319L2.69548 12.1816C2.13798 11.6241 2.13798 10.7202 2.69548 10.1627L13.464 -0.605871C14.0215 -1.16337 14.9254 -1.16337 15.4829 -0.605871L19.4333 3.3445Z" fill="white" fill-opacity="0.5"/>
<path fill-rule="evenodd" clip-rule="evenodd" d="M24.7366 18.5189C25.2941 19.0764 25.2941 19.9803 24.7366 20.5378L15.3613 29.913C14.8038 30.4705 13.8999 30.4705 13.3424 29.913L8.51824 25.0888C7.96073 24.5313 7.96074 23.6274 8.51824 23.0699L17.8935 13.6947C18.451 13.1372 19.3549 13.1372 19.9124 13.6947L24.7366 18.5189Z" fill="white" fill-opacity="0.3"/>
</g>
<defs>
<clipPath id="clip0_47_3457">
<rect x="3" y="3.75" width="22.5" height="22.5" rx="11.25" fill="white"/>
</clipPath>
</defs>
</svg>
