<svg width="361" height="377" viewBox="0 0 361 377" fill="none" xmlns="http://www.w3.org/2000/svg">
<g clip-path="url(#clip0_60_4888)">
<path d="M139.76 376.851C216.671 376.851 279.02 365.837 279.02 352.249C279.02 338.662 216.671 327.647 139.76 327.647C62.8489 327.647 0.5 338.662 0.5 352.249C0.5 365.837 62.8489 376.851 139.76 376.851Z" fill="#FFF1EB"/>
<path d="M224.4 272.35C299.566 272.35 360.5 211.415 360.5 136.249C360.5 61.0831 299.566 0.148926 224.4 0.148926C149.234 0.148926 88.2998 61.0831 88.2998 136.249C88.2998 211.415 149.234 272.35 224.4 272.35Z" fill="#FFF1EB"/>
<path opacity="0.05" d="M224.4 248.604C286.452 248.604 336.755 198.301 336.755 136.249C336.755 74.1972 286.452 23.894 224.4 23.894C162.348 23.894 112.045 74.1972 112.045 136.249C112.045 198.301 162.348 248.604 224.4 248.604Z" fill="black"/>
<path opacity="0.05" d="M224.399 228.334C275.256 228.334 316.484 187.106 316.484 136.249C316.484 85.3921 275.256 44.1643 224.399 44.1643C173.542 44.1643 132.314 85.3921 132.314 136.249C132.314 187.106 173.542 228.334 224.399 228.334Z" fill="black"/>
<path opacity="0.05" d="M224.4 202.272C260.864 202.272 290.423 172.713 290.423 136.249C290.423 99.7856 260.864 70.2261 224.4 70.2261C187.937 70.2261 158.377 99.7856 158.377 136.249C158.377 172.713 187.937 202.272 224.4 202.272Z" fill="black"/>
<path d="M89.5047 148.429C89.5047 148.429 78.8045 178.548 83.5602 189.249C88.3158 199.949 95.8456 210.253 95.8456 210.253C95.8456 210.253 93.0715 150.411 89.5047 148.429Z" fill="#D0CDE1"/>
<path opacity="0.1" d="M89.5047 148.429C89.5047 148.429 78.8045 178.548 83.5602 189.249C88.3158 199.949 95.8456 210.253 95.8456 210.253C95.8456 210.253 93.0715 150.411 89.5047 148.429Z" fill="black"/>
<path d="M97.0349 218.179C97.0349 218.179 96.2423 225.709 95.846 226.105C95.4497 226.501 96.2423 227.294 95.846 228.483C95.4497 229.672 95.0534 231.257 95.846 231.653C96.6386 232.049 91.4867 266.924 91.4867 266.924C91.4867 266.924 78.8049 283.569 83.9569 309.725L85.5421 336.277C85.5421 336.277 97.8275 337.07 97.8275 332.711C97.8275 332.711 97.0349 327.559 97.0349 325.181C97.0349 322.803 99.0164 322.803 97.8275 321.614C96.6386 320.425 96.6386 319.633 96.6386 319.633C96.6386 319.633 98.6201 318.047 98.2238 317.651C97.8275 317.255 101.791 289.117 101.791 289.117C101.791 289.117 106.15 284.758 106.15 282.38V280.002C106.15 280.002 108.131 274.85 108.131 274.454C108.131 274.058 118.832 249.883 118.832 249.883L123.191 267.321L127.947 292.288C127.947 292.288 130.324 314.877 135.08 323.596C135.08 323.596 143.402 352.13 143.402 351.337C143.402 350.544 157.273 348.563 156.877 344.996C156.481 341.429 148.554 291.495 148.554 291.495L150.536 217.386L97.0349 218.179Z" fill="#2F2E41"/>
<path d="M86.3343 334.296C86.3343 334.296 75.6341 355.3 82.7676 356.093C89.901 356.885 92.6752 356.885 95.8456 353.715C97.5789 351.982 101.089 349.656 103.915 347.904C105.589 346.882 106.942 345.41 107.818 343.655C108.694 341.9 109.057 339.933 108.866 337.981C108.657 336.042 107.933 334.445 106.15 334.296C101.394 333.9 95.8456 329.54 95.8456 329.54L86.3343 334.296Z" fill="#2F2E41"/>
<path d="M145.384 349.752C145.384 349.752 134.684 370.756 141.817 371.548C148.951 372.341 151.725 372.341 154.895 369.171C156.629 367.437 160.139 365.112 162.965 363.36C164.639 362.338 165.992 360.866 166.868 359.111C167.743 357.355 168.107 355.389 167.916 353.437C167.707 351.498 166.983 349.9 165.199 349.752C160.444 349.355 154.895 344.996 154.895 344.996L145.384 349.752Z" fill="#2F2E41"/>
<path d="M134.074 114.057C143.275 114.057 150.733 106.598 150.733 97.3974C150.733 88.1968 143.275 80.7383 134.074 80.7383C124.874 80.7383 117.415 88.1968 117.415 97.3974C117.415 106.598 124.874 114.057 134.074 114.057Z" fill="#FFB8B8"/>
<path d="M123.365 102.871C123.365 102.871 111.466 124.766 110.514 124.766C109.562 124.766 131.933 131.906 131.933 131.906C131.933 131.906 138.12 110.963 139.072 109.059L123.365 102.871Z" fill="#FFB8B8"/>
<path d="M141.619 126.831C141.619 126.831 117.841 113.753 115.463 114.149C113.085 114.545 87.7216 136.738 88.1179 145.853C88.5142 154.968 91.6846 170.028 91.6846 170.028C91.6846 170.028 92.8735 212.036 95.2513 212.432C97.6292 212.829 94.855 219.962 95.6477 219.962C96.4403 219.962 151.13 219.962 151.527 218.773C151.923 217.584 141.619 126.831 141.619 126.831Z" fill="#D0CDE1"/>
<path d="M154.895 220.953C154.895 220.953 162.425 243.939 156.084 243.146C149.743 242.353 146.969 223.331 146.969 223.331L154.895 220.953Z" fill="#FFB8B8"/>
<path d="M134.683 125.444C134.683 125.444 120.02 128.614 122.398 148.429C124.775 168.244 129.135 188.06 129.135 188.06L143.798 220.16L145.383 226.105L156.083 223.331L148.157 177.359C148.157 177.359 145.383 128.218 141.816 126.633C139.567 125.674 137.122 125.266 134.683 125.444Z" fill="#D0CDE1"/>
<path opacity="0.1" d="M125.767 187.465L143.997 219.962L128.638 185.719L125.767 187.465Z" fill="black"/>
<path d="M150.66 92.492L150.715 91.219L153.247 91.8493C153.22 91.4406 153.104 91.0427 152.909 90.683C152.713 90.3233 152.441 90.0105 152.112 89.766L154.81 89.6152C152.546 86.3986 149.654 83.6741 146.308 81.6063C142.963 79.5385 139.232 78.1704 135.343 77.5845C129.508 76.7388 123.011 77.9625 119.01 82.2929C117.069 84.3933 115.85 87.0644 114.982 89.7894C113.385 94.8083 113.059 100.791 116.391 104.871C119.777 109.017 125.691 109.829 131.019 110.342C132.894 110.523 134.859 110.691 136.596 109.963C136.789 107.971 136.534 105.96 135.849 104.079C135.564 103.496 135.428 102.852 135.453 102.204C135.69 100.619 137.804 100.219 139.392 100.434C140.981 100.648 142.891 100.975 143.935 99.7591C144.653 98.9212 144.611 97.7011 144.706 96.6011C144.966 93.6066 150.632 93.1198 150.66 92.492Z" fill="#2F2E41"/>
<path d="M252.838 355.635C263.559 355.635 272.249 346.944 272.249 336.224C272.249 325.504 263.559 316.813 252.838 316.813C242.118 316.813 233.428 325.504 233.428 336.224C233.428 346.944 242.118 355.635 252.838 355.635Z" fill="#FE7239"/>
<path d="M24.8765 348.864C35.5967 348.864 44.2871 340.173 44.2871 329.453C44.2871 318.733 35.5967 310.042 24.8765 310.042C14.1563 310.042 5.46582 318.733 5.46582 329.453C5.46582 340.173 14.1563 348.864 24.8765 348.864Z" fill="#FE7239"/>
<path d="M24.8765 317.716C32.6051 317.716 38.8703 311.451 38.8703 303.723C38.8703 295.994 32.6051 289.729 24.8765 289.729C17.148 289.729 10.8828 295.994 10.8828 303.723C10.8828 311.451 17.148 317.716 24.8765 317.716Z" fill="#FE7239"/>
<path d="M24.8763 291.986C30.3611 291.986 34.8074 287.54 34.8074 282.055C34.8074 276.57 30.3611 272.124 24.8763 272.124C19.3916 272.124 14.9453 276.57 14.9453 282.055C14.9453 287.54 19.3916 291.986 24.8763 291.986Z" fill="#FE7239"/>
</g>
<defs>
<clipPath id="clip0_60_4888">
<rect width="360" height="376.702" fill="white" transform="translate(0.5 0.148926)"/>
</clipPath>
</defs>
</svg>
