<svg width="20" height="21" viewBox="0 0 20 21" fill="none" xmlns="http://www.w3.org/2000/svg">
<path d="M10 5.8667V8.6417" stroke="#444750" stroke-width="1.25" stroke-miterlimit="10" stroke-linecap="round"/>
<path d="M10.0166 2.16675C6.94992 2.16675 4.46658 4.65008 4.46658 7.71675V9.46675C4.46658 10.0334 4.23325 10.8834 3.94158 11.3667L2.88325 13.1334C2.23325 14.2251 2.68325 15.4417 3.88325 15.8417C7.86658 17.1667 12.1749 17.1667 16.1582 15.8417C17.2832 15.4667 17.7666 14.1501 17.1582 13.1334L16.0999 11.3667C15.8082 10.8834 15.5749 10.0251 15.5749 9.46675V7.71675C15.5666 4.66675 13.0666 2.16675 10.0166 2.16675Z" stroke="#444750" stroke-width="1.25" stroke-miterlimit="10" stroke-linecap="round"/>
<path d="M12.7751 16.1833C12.7751 17.7083 11.5251 18.9583 10.0001 18.9583C9.24176 18.9583 8.54176 18.6417 8.04176 18.1417C7.54176 17.6417 7.2251 16.9417 7.2251 16.1833" stroke="#444750" stroke-width="1.25" stroke-miterlimit="10"/>
<rect x="11.6668" y="1.33333" width="7.5" height="7.5" rx="3.75" fill="#F57600"/>
<rect x="11.6668" y="1.33333" width="7.5" height="7.5" rx="3.75" stroke="white" stroke-width="1.66667"/>
</svg>
