<svg width="22" height="22" viewBox="0 0 22 22" fill="none" xmlns="http://www.w3.org/2000/svg">
<g id="20px / chat, support">
<path id="Vector" d="M16.5 7.69995V9.89995C16.5 11.0669 16.0364 12.1861 15.2112 13.0112C14.3861 13.8364 13.2669 14.3 12.1 14.3H10.8108L8.86816 16.2437C9.17616 16.4076 9.52706 16.5 9.89996 16.5H12.1L15.4 19.8V16.5H17.6C18.1834 16.5 18.743 16.2682 19.1556 15.8556C19.5682 15.443 19.8 14.8834 19.8 14.3V9.89995C19.8 9.31648 19.5682 8.7569 19.1556 8.34432C18.743 7.93174 18.1834 7.69995 17.6 7.69995H16.5Z" fill="#799AD6"/>
<path id="Vector_2" d="M2.2002 5.50005C2.2002 4.91657 2.43198 4.35699 2.84456 3.94441C3.25714 3.53183 3.81672 3.30005 4.4002 3.30005H12.1002C12.6837 3.30005 13.2432 3.53183 13.6558 3.94441C14.0684 4.35699 14.3002 4.91657 14.3002 5.50005V9.90005C14.3002 10.4835 14.0684 11.0431 13.6558 11.4557C13.2432 11.8683 12.6837 12.1 12.1002 12.1H9.9002L6.6002 15.4V12.1H4.4002C3.81672 12.1 3.25714 11.8683 2.84456 11.4557C2.43198 11.0431 2.2002 10.4835 2.2002 9.90005V5.50005Z" fill="#317BFF"/>
</g>
</svg>
