<svg width="92" height="92" viewBox="0 0 92 92" fill="none" xmlns="http://www.w3.org/2000/svg">
<path d="M73.0381 83.2148C67.1652 87.4817 60.3659 90.2981 53.196 91.4337C46.0261 92.5693 38.6892 91.9918 31.7853 89.7486C24.8813 87.5054 18.6062 83.66 13.4731 78.527C8.34005 73.3939 4.49468 67.1188 2.25143 60.2149C0.00817597 53.3109 -0.569264 45.974 0.566319 38.8041C1.7019 31.6342 4.51827 24.8349 8.78514 18.962C13.052 13.0891 18.6483 8.30943 25.1163 5.01377C31.5843 1.71811 38.7406 2.76057e-05 45.9998 3.32603e-10L45.9999 15.18C41.1362 15.18 36.3415 16.3311 32.0079 18.5392C27.6743 20.7473 23.9249 23.9497 21.066 27.8845C18.2072 31.8194 16.3203 36.3749 15.5594 41.1788C14.7986 45.9826 15.1855 50.8983 16.6885 55.524C18.1914 60.1496 20.7678 64.3539 24.207 67.7931C27.6462 71.2322 31.8505 73.8086 36.4761 75.3116C41.1018 76.8145 46.0175 77.2014 50.8213 76.4406C55.6252 75.6797 60.1807 73.7927 64.1155 70.9339L73.0381 83.2148Z" fill="white"/>
<path d="M73.0381 83.2148C80.8971 77.5049 86.7467 69.4536 89.7486 60.2148C92.7505 50.976 92.7505 41.024 89.7486 31.7852C86.7467 22.5464 80.8971 14.4951 73.0381 8.78523C65.1791 3.07534 55.7143 4.20749e-06 46 0L46 15.18C52.5086 15.18 58.85 17.2405 64.1155 21.0661C69.3811 24.8917 73.3003 30.2861 75.3116 36.4761C77.3228 42.6661 77.3228 49.3339 75.3116 55.5239C73.3003 61.7139 69.3811 67.1083 64.1155 70.9339L73.0381 83.2148Z" fill="#1CC14D"/>
<path d="M36.1563 52.3154V43.2594L37.6123 43.2914L33.5643 48.2514L33.1803 47.7714H40.6043V50.0114H31.9643L30.8763 47.9154L36.5883 41.0194H38.7803V52.3154H36.1563ZM46.558 52.4754C45.5553 52.4754 44.6967 52.2461 43.982 51.7874C43.278 51.3288 42.7393 50.6728 42.366 49.8194C41.9927 48.9554 41.806 47.9208 41.806 46.7154C41.806 45.5101 41.9927 44.4808 42.366 43.6274C42.7393 42.7634 43.278 42.1021 43.982 41.6434C44.6967 41.1848 45.5553 40.9554 46.558 40.9554C47.5607 40.9554 48.4193 41.1848 49.134 41.6434C49.8487 42.1021 50.3927 42.7634 50.766 43.6274C51.1393 44.4808 51.326 45.5101 51.326 46.7154C51.326 47.9208 51.1393 48.9554 50.766 49.8194C50.3927 50.6728 49.8487 51.3288 49.134 51.7874C48.4193 52.2461 47.5607 52.4754 46.558 52.4754ZM46.558 50.1714C47.2513 50.1714 47.7847 49.8728 48.158 49.2754C48.542 48.6781 48.734 47.8248 48.734 46.7154C48.734 45.5741 48.542 44.6994 48.158 44.0914C47.7847 43.4728 47.2513 43.1634 46.558 43.1634C45.8647 43.1634 45.326 43.4728 44.942 44.0914C44.5687 44.6994 44.382 45.5741 44.382 46.7154C44.382 47.8248 44.5687 48.6781 44.942 49.2754C45.326 49.8728 45.8647 50.1714 46.558 50.1714ZM54.6989 52.3154L62.1069 41.1154H64.4909L57.0029 52.3154H54.6989ZM55.4189 47.0514C54.8749 47.0514 54.3896 46.9181 53.9629 46.6514C53.5362 46.3741 53.2002 46.0008 52.9549 45.5314C52.7202 45.0621 52.6029 44.5288 52.6029 43.9314C52.6029 43.3234 52.7202 42.7848 52.9549 42.3154C53.2002 41.8354 53.5362 41.4621 53.9629 41.1954C54.3896 40.9288 54.8749 40.7954 55.4189 40.7954C55.9736 40.7954 56.4589 40.9288 56.8749 41.1954C57.3016 41.4621 57.6322 41.8354 57.8669 42.3154C58.1016 42.7848 58.2189 43.3234 58.2189 43.9314C58.2189 44.5288 58.0962 45.0621 57.8509 45.5314C57.6056 46.0008 57.2696 46.3741 56.8429 46.6514C56.4269 46.9181 55.9522 47.0514 55.4189 47.0514ZM55.4189 45.4034C55.6002 45.4034 55.7496 45.3448 55.8669 45.2274C55.9949 45.1101 56.0909 44.9394 56.1549 44.7154C56.2189 44.4914 56.2509 44.2301 56.2509 43.9314C56.2509 43.6328 56.2189 43.3714 56.1549 43.1474C56.0909 42.9234 55.9949 42.7528 55.8669 42.6354C55.7496 42.5074 55.6002 42.4434 55.4189 42.4434C55.2482 42.4434 55.0989 42.5074 54.9709 42.6354C54.8429 42.7528 54.7416 42.9234 54.6669 43.1474C54.6029 43.3714 54.5709 43.6328 54.5709 43.9314C54.5709 44.2301 54.6029 44.4914 54.6669 44.7154C54.7309 44.9394 54.8269 45.1101 54.9549 45.2274C55.0936 45.3448 55.2482 45.4034 55.4189 45.4034ZM63.9469 52.4754C63.4029 52.4754 62.9176 52.3368 62.4909 52.0594C62.0642 51.7821 61.7282 51.4141 61.4829 50.9554C61.2482 50.4861 61.1309 49.9528 61.1309 49.3554C61.1309 48.7474 61.2482 48.2088 61.4829 47.7394C61.7176 47.2594 62.0482 46.8861 62.4749 46.6194C62.9016 46.3528 63.3922 46.2194 63.9469 46.2194C64.5016 46.2194 64.9869 46.3528 65.4029 46.6194C65.8296 46.8861 66.1602 47.2594 66.3949 47.7394C66.6296 48.2088 66.7469 48.7474 66.7469 49.3554C66.7469 49.9421 66.6242 50.4701 66.3789 50.9394C66.1336 51.4088 65.7976 51.7821 65.3709 52.0594C64.9549 52.3368 64.4802 52.4754 63.9469 52.4754ZM63.9469 50.8274C64.1282 50.8274 64.2776 50.7688 64.3949 50.6514C64.5229 50.5234 64.6189 50.3528 64.6829 50.1394C64.7469 49.9154 64.7789 49.6541 64.7789 49.3554C64.7789 49.0568 64.7469 48.7954 64.6829 48.5714C64.6189 48.3474 64.5229 48.1768 64.3949 48.0594C64.2776 47.9314 64.1282 47.8674 63.9469 47.8674C63.7656 47.8674 63.6109 47.9261 63.4829 48.0434C63.3549 48.1608 63.2536 48.3368 63.1789 48.5714C63.1149 48.7954 63.0829 49.0568 63.0829 49.3554C63.0829 49.6541 63.1149 49.9154 63.1789 50.1394C63.2536 50.3528 63.3549 50.5234 63.4829 50.6514C63.6109 50.7688 63.7656 50.8274 63.9469 50.8274Z" fill="white"/>
</svg>
