<svg width="40" height="40" viewBox="0 0 40 40" fill="none" xmlns="http://www.w3.org/2000/svg">
<g clip-path="url(#clip0_60_10027)">
<rect width="40" height="40" rx="20" fill="white"/>
<path d="M9.36534 29.0449C8.85475 29.0449 8.41247 28.8579 8.03851 28.4839C7.66453 28.1099 7.47754 27.6676 7.47754 27.157V15.5817H8.57048V27.157C8.57048 27.3557 8.65328 27.5379 8.81887 27.7035C8.98448 27.8691 9.16664 27.9519 9.36534 27.9519H27.6971V29.0449H9.36534ZM12.8429 25.5673C12.3323 25.5673 11.89 25.3803 11.5161 25.0063C11.1421 24.6323 10.9551 24.1901 10.9551 23.6795V13.6442C10.9551 13.1336 11.1421 12.6913 11.5161 12.3173C11.89 11.9433 12.3323 11.7563 12.8429 11.7563H29.6346C30.1452 11.7563 30.5875 11.9433 30.9615 12.3173C31.3354 12.6913 31.5224 13.1336 31.5224 13.6442V23.6795C31.5224 24.1901 31.3354 24.6323 30.9615 25.0063C30.5875 25.3803 30.1452 25.5673 29.6346 25.5673H12.8429ZM14.3333 24.4743C14.3333 23.8445 14.1089 23.3062 13.6599 22.8593C13.211 22.4125 12.6737 22.1891 12.048 22.1891V23.6795C12.048 23.8947 12.1267 24.081 12.284 24.2384C12.4413 24.3957 12.6276 24.4743 12.8429 24.4743H14.3333ZM28.1442 24.4743H29.6346C29.8499 24.4743 30.0362 24.3957 30.1935 24.2384C30.3508 24.081 30.4295 23.8947 30.4295 23.6795V22.1891C29.7997 22.1891 29.2613 22.4135 28.8145 22.8625C28.3676 23.3114 28.1442 23.8486 28.1442 24.4743ZM21.2388 21.2452C21.9674 21.2452 22.5801 20.9968 23.0769 20.5C23.5737 20.0032 23.8221 19.3905 23.8221 18.6618C23.8221 17.9332 23.5737 17.3205 23.0769 16.8237C22.5801 16.3269 21.9674 16.0785 21.2388 16.0785C20.5101 16.0785 19.8974 16.3269 19.4006 16.8237C18.9038 17.3205 18.6554 17.9332 18.6554 18.6618C18.6554 19.3905 18.9038 20.0032 19.4006 20.5C19.8974 20.9968 20.5101 21.2452 21.2388 21.2452ZM12.048 15.1346C12.6779 15.1346 13.2162 14.9101 13.663 14.4612C14.1099 14.0123 14.3333 13.475 14.3333 12.8493H12.8429C12.6276 12.8493 12.4413 12.928 12.284 13.0853C12.1267 13.2426 12.048 13.4289 12.048 13.6442V15.1346ZM30.4295 15.1346V13.6442C30.4295 13.4289 30.3508 13.2426 30.1935 13.0853C30.0362 12.928 29.8499 12.8493 29.6346 12.8493H28.1442C28.1442 13.4791 28.3687 14.0175 28.8176 14.4643C29.2665 14.9112 29.8038 15.1346 30.4295 15.1346Z" fill="#55A55E"/>
</g>
<defs>
<clipPath id="clip0_60_10027">
<rect width="40" height="40" rx="20" fill="white"/>
</clipPath>
</defs>
</svg>
