<svg width="40" height="40" viewBox="0 0 40 40" fill="none" xmlns="http://www.w3.org/2000/svg">
<g clip-path="url(#clip0_47_3449)">
<rect width="40" height="40" rx="20" fill="#454CEE"/>
<path d="M22.5305 22.909C24.0978 21.3416 24.0918 18.7986 22.517 17.2387L16.6992 11.4758C15.8792 10.6635 14.5537 10.6775 13.751 11.5069C12.9641 12.32 12.9747 13.6139 13.7748 14.414L16.6184 17.2576C18.1731 18.8123 18.1816 21.3303 16.6373 22.8954L13.7568 25.8149C12.9652 26.6172 12.959 27.9047 13.7428 28.7147C14.5488 29.5476 15.8809 29.5585 16.7005 28.7389L22.5305 22.909Z" fill="white"/>
<path d="M28.1975 22.909C29.7648 21.3416 29.7588 18.7986 28.184 17.2387L22.3662 11.4758C21.5462 10.6635 20.2206 10.6775 19.418 11.5069C18.6311 12.32 18.6417 13.6139 19.4418 14.414L22.2854 17.2576C23.8401 18.8123 23.8486 21.3303 22.3043 22.8954L19.4238 25.8149C18.6322 26.6172 18.626 27.9047 19.4098 28.7147C20.2158 29.5476 21.5479 29.5585 22.3675 28.7389L28.1975 22.909Z" fill="white" fill-opacity="0.2"/>
</g>
<defs>
<clipPath id="clip0_47_3449">
<rect width="40" height="40" rx="20" fill="white"/>
</clipPath>
</defs>
</svg>
